<svg xmlns="http://www.w3.org/2000/svg" xmlns:xlink="http://www.w3.org/1999/xlink" width="0" height="0" style="display:none;"><symbol viewBox="0 0 24 24" id="task-line"><path d="M19 4H5V20H19V4ZM3 2.9918C3 2.44405 3.44749 2 3.9985 2H19.9997C20.5519 2 20.9996 2.44772 20.9997 3L21 20.9925C21 21.5489 20.5551 22 20.0066 22H3.9934C3.44476 22 3 21.5447 3 21.0082V2.9918ZM11.2929 13.1213L15.5355 8.87868L16.9497 10.2929L11.2929 15.9497L7.40381 12.0607L8.81802 10.6464L11.2929 13.1213Z"></path></symbol><symbol viewBox="0 0 24 24" id="todo-line"><path d="M17 2H20C20.5523 2 21 2.44772 21 3V21C21 21.5523 20.5523 22 20 22H4C3.44772 22 3 21.5523 3 21V3C3 2.44772 3.44772 2 4 2H7V0H9V2H15V0H17V2ZM17 4V6H15V4H9V6H7V4H5V20H19V4H17ZM7 8H17V10H7V8ZM7 12H17V14H7V12Z"></path></symbol><symbol viewBox="0 0 24 24" id="todo-fill"><path d="M17 2H20C20.5523 2 21 2.44772 21 3V21C21 21.5523 20.5523 22 20 22H4C3.44772 22 3 21.5523 3 21V3C3 2.44772 3.44772 2 4 2H7V0H9V2H15V0H17V2ZM7 8V10H17V8H7ZM7 12V14H17V12H7Z"></path></symbol><symbol viewBox="0 0 24 24" id="task-fill"><path d="M21 3V21.0082C21 21.556 20.5551 22 20.0066 22H3.9934C3.44476 22 3 21.5447 3 21.0082V2.9918C3 2.44405 3.44495 2 3.9934 2H20C20.5523 2 21 2.44772 21 3ZM11.2929 13.1213L8.81802 10.6464L7.40381 12.0607L11.2929 15.9497L16.9497 10.2929L15.5355 8.87868L11.2929 13.1213Z"></path></symbol><symbol viewBox="0 0 24 24" id="home-line"><path d="M21 20C21 20.5523 20.5523 21 20 21H4C3.44772 21 3 20.5523 3 20V9.48907C3 9.18048 3.14247 8.88917 3.38606 8.69972L11.3861 2.47749C11.7472 2.19663 12.2528 2.19663 12.6139 2.47749L20.6139 8.69972C20.8575 8.88917 21 9.18048 21 9.48907V20ZM19 19V9.97815L12 4.53371L5 9.97815V19H19Z"></path></symbol><symbol viewBox="0 0 24 24" id="home-fill"><path d="M21 20C21 20.5523 20.5523 21 20 21H4C3.44772 21 3 20.5523 3 20V9.48907C3 9.18048 3.14247 8.88917 3.38606 8.69972L11.3861 2.47749C11.7472 2.19663 12.2528 2.19663 12.6139 2.47749L20.6139 8.69972C20.8575 8.88917 21 9.18048 21 9.48907V20Z"></path></symbol><symbol viewBox="0 0 24 24" id="cloud-line"><path d="M12 2C15.866 2 19 5.13401 19 9C19 9.11351 18.9973 9.22639 18.992 9.33857C21.3265 10.16 23 12.3846 23 15C23 18.3137 20.3137 21 17 21H7C3.68629 21 1 18.3137 1 15C1 12.3846 2.67346 10.16 5.00804 9.33857C5.0027 9.22639 5 9.11351 5 9C5 5.13401 8.13401 2 12 2ZM12 4C9.23858 4 7 6.23858 7 9C7 9.08147 7.00193 9.16263 7.00578 9.24344L7.07662 10.7309L5.67183 11.2252C4.0844 11.7837 3 13.2889 3 15C3 17.2091 4.79086 19 7 19H17C19.2091 19 21 17.2091 21 15C21 12.79 19.21 11 17 11C15.233 11 13.7337 12.1457 13.2042 13.7347L11.3064 13.1021C12.1005 10.7185 14.35 9 17 9C17 6.23858 14.7614 4 12 4Z"></path></symbol><symbol viewBox="0 0 24 24" id="cloud-off-line"><path d="M3.51472 2.10051L22.6066 21.1924L21.1924 22.6066L19.1782 20.5924C18.503 20.8556 17.7684 21 17 21H7C3.68629 21 1 18.3137 1 15C1 12.3846 2.67346 10.16 5.00804 9.33857C5.0027 9.22639 5 9.11351 5 9C5 8.22228 5.12683 7.47418 5.36094 6.77527L2.10051 3.51472L3.51472 2.10051ZM7 9C7 9.08147 7.00193 9.16263 7.00578 9.24344L7.07662 10.7309L5.67183 11.2252C4.0844 11.7837 3 13.2889 3 15C3 17.2091 4.79086 19 7 19H17C17.1858 19 17.3687 18.9873 17.5478 18.9628L7.03043 8.44519C7.01032 8.62736 7 8.81247 7 9ZM12 2C15.866 2 19 5.13401 19 9C19 9.11351 18.9973 9.22639 18.992 9.33857C21.3265 10.16 23 12.3846 23 15C23 16.0883 22.7103 17.1089 22.2037 17.9889L20.7111 16.4955C20.8974 16.0335 21 15.5287 21 15C21 12.79 19.21 11 17 11C16.4711 11 15.9661 11.1027 15.5039 11.2892L14.0111 9.7964C14.8912 9.28978 15.9118 9 17 9C17 6.23858 14.7614 4 12 4C10.9295 4 9.93766 4.33639 9.12428 4.90922L7.69418 3.48056C8.88169 2.55284 10.3763 2 12 2Z"></path></symbol><symbol viewBox="0 0 24 24" id="cloud-fill"><path d="M17 7C13.5705 7 10.6449 9.15804 9.50734 12.1903L11.3805 12.8927C12.2337 10.6185 14.4278 9 17 9C17.6983 9 18.3687 9.11928 18.992 9.33857C21.3265 10.16 23 12.3846 23 15C23 18.3137 20.3137 21 17 21H7C3.68629 21 1 18.3137 1 15C1 12.3846 2.67346 10.16 5.00804 9.33857C5.0027 9.22639 5 9.11351 5 9C5 5.13401 8.13401 2 12 2C15.242 2 17.9693 4.20399 18.7652 7.19539C18.1973 7.0675 17.6065 7 17 7Z"></path></symbol><symbol viewBox="0 0 24 24" id="cloud-off-fill"><path d="M3.51472 2.10051L22.6066 21.1924L21.1924 22.6066L19.1782 20.5924C18.503 20.8556 17.7684 21 17 21H7C3.68629 21 1 18.3137 1 15C1 12.3846 2.67346 10.16 5.00804 9.33857C5.0027 9.22639 5 9.11351 5 9C5 8.22228 5.12683 7.47418 5.36094 6.77527L2.10051 3.51472L3.51472 2.10051ZM17 9C17.6983 9 18.3687 9.11928 18.992 9.33857C21.3265 10.16 23 12.3846 23 15C23 16.0883 22.7103 17.1089 22.2037 17.9889L14.0109 9.79638C14.891 9.28977 15.9117 9 17 9ZM12 2C15.242 2 17.9693 4.20399 18.7652 7.19539C18.1973 7.0675 17.6065 7 17 7C15.357 7 13.8297 7.49529 12.5592 8.34471L7.69418 3.48056C8.88169 2.55284 10.3763 2 12 2Z"></path></symbol></svg>